<svg width="584" height="127" viewBox="0 0 584 127" fill="none" xmlns="http://www.w3.org/2000/svg">
<rect y="67" width="580" height="60" fill="white"/>
<path d="M8 73H543V121H8V73Z" fill="#00B3FF"/>
<g filter="url(#filter0_d_0_1)">
<path d="M504 10C504 4.47715 508.477 0 514 0H570C575.523 0 580 4.47715 580 10V47C580 52.5228 575.523 57 570 57H514C508.477 57 504 52.5228 504 47V10Z" fill="#D9D9D9"/>
<path d="M514 0.5H570C575.247 0.5 579.5 4.7533 579.5 10V47C579.5 52.2467 575.247 56.5 570 56.5H514C508.753 56.5 504.5 52.2467 504.5 47V10C504.5 4.75329 508.753 0.5 514 0.5Z" stroke="black"/>
</g>
<path d="M542.5 74L527.345 39.5L557.655 39.5L542.5 74Z" fill="#D9D9D9"/>
<path d="M531.136 22.2557C531.733 22.2604 532.33 22.3741 532.926 22.5966C533.523 22.8191 534.067 23.1884 534.56 23.7045C535.052 24.2159 535.447 24.9143 535.746 25.7997C536.044 26.6851 536.193 27.7955 536.193 29.1307C536.193 30.4233 536.07 31.5715 535.824 32.5753C535.582 33.5743 535.232 34.4171 534.773 35.1037C534.318 35.7902 533.764 36.3111 533.111 36.6662C532.462 37.0213 531.728 37.1989 530.909 37.1989C530.095 37.1989 529.368 37.0379 528.729 36.7159C528.094 36.3892 527.573 35.937 527.166 35.3594C526.764 34.777 526.506 34.1023 526.392 33.3352H528.125C528.281 34.0028 528.591 34.5545 529.055 34.9901C529.524 35.4209 530.142 35.6364 530.909 35.6364C532.031 35.6364 532.917 35.1463 533.565 34.1662C534.219 33.1861 534.545 31.8011 534.545 30.0114H534.432C534.167 30.4091 533.852 30.7524 533.487 31.0412C533.123 31.33 532.718 31.5526 532.273 31.7088C531.828 31.8651 531.354 31.9432 530.852 31.9432C530.019 31.9432 529.254 31.7372 528.558 31.3253C527.867 30.9086 527.313 30.3381 526.896 29.6136C526.484 28.8845 526.278 28.0511 526.278 27.1136C526.278 26.2235 526.477 25.4091 526.875 24.6705C527.277 23.9271 527.841 23.3352 528.565 22.8949C529.295 22.4545 530.152 22.2415 531.136 22.2557ZM531.136 23.8182C530.54 23.8182 530.002 23.9673 529.524 24.2656C529.051 24.5592 528.674 24.9569 528.395 25.4588C528.12 25.956 527.983 26.5076 527.983 27.1136C527.983 27.7197 528.116 28.2713 528.381 28.7685C528.651 29.2609 529.018 29.6539 529.482 29.9474C529.95 30.2363 530.483 30.3807 531.08 30.3807C531.529 30.3807 531.948 30.2931 532.337 30.1179C532.725 29.938 533.063 29.6941 533.352 29.3864C533.646 29.0739 533.875 28.7211 534.041 28.3281C534.207 27.9304 534.29 27.5161 534.29 27.0852C534.29 26.517 534.152 25.9844 533.878 25.4872C533.608 24.9901 533.234 24.5876 532.756 24.2798C532.282 23.9721 531.742 23.8182 531.136 23.8182ZM543.73 37.1989C542.66 37.1989 541.749 36.9077 540.996 36.3253C540.243 35.7382 539.668 34.8883 539.27 33.7756C538.873 32.6581 538.674 31.3087 538.674 29.7273C538.674 28.1553 538.873 26.813 539.27 25.7003C539.673 24.5829 540.25 23.7306 541.003 23.1435C541.761 22.5516 542.67 22.2557 543.73 22.2557C544.791 22.2557 545.698 22.5516 546.451 23.1435C547.208 23.7306 547.786 24.5829 548.184 25.7003C548.586 26.813 548.787 28.1553 548.787 29.7273C548.787 31.3087 548.588 32.6581 548.191 33.7756C547.793 34.8883 547.218 35.7382 546.465 36.3253C545.712 36.9077 544.801 37.1989 543.73 37.1989ZM543.73 35.6364C544.791 35.6364 545.615 35.125 546.202 34.1023C546.789 33.0795 547.083 31.6212 547.083 29.7273C547.083 28.4678 546.948 27.3954 546.678 26.5099C546.413 25.6245 546.029 24.9498 545.527 24.4858C545.03 24.0218 544.431 23.7898 543.73 23.7898C542.679 23.7898 541.858 24.3082 541.266 25.3452C540.674 26.3774 540.378 27.8381 540.378 29.7273C540.378 30.9867 540.511 32.0568 540.776 32.9375C541.041 33.8182 541.422 34.4882 541.919 34.9474C542.421 35.4067 543.025 35.6364 543.73 35.6364ZM558.901 34.2727V33.5057C558.901 32.9754 559.01 32.4901 559.228 32.0497C559.45 31.6046 559.772 31.2495 560.194 30.9844C560.62 30.7145 561.136 30.5795 561.742 30.5795C562.357 30.5795 562.873 30.7145 563.29 30.9844C563.707 31.2495 564.022 31.6046 564.235 32.0497C564.448 32.4901 564.554 32.9754 564.554 33.5057V34.2727C564.554 34.803 564.445 35.2907 564.228 35.7358C564.015 36.1761 563.697 36.5312 563.276 36.8011C562.859 37.0663 562.348 37.1989 561.742 37.1989C561.126 37.1989 560.608 37.0663 560.186 36.8011C559.765 36.5312 559.445 36.1761 559.228 35.7358C559.01 35.2907 558.901 34.803 558.901 34.2727ZM560.35 33.5057V34.2727C560.35 34.7131 560.454 35.1084 560.662 35.4588C560.871 35.8045 561.23 35.9773 561.742 35.9773C562.239 35.9773 562.589 35.8045 562.793 35.4588C563.001 35.1084 563.105 34.7131 563.105 34.2727V33.5057C563.105 33.0653 563.006 32.6723 562.807 32.3267C562.608 31.9763 562.253 31.8011 561.742 31.8011C561.245 31.8011 560.887 31.9763 560.669 32.3267C560.456 32.6723 560.35 33.0653 560.35 33.5057ZM551.657 25.9489V25.1818C551.657 24.6515 551.766 24.1662 551.983 23.7259C552.206 23.2808 552.528 22.9257 552.949 22.6605C553.375 22.3906 553.891 22.2557 554.498 22.2557C555.113 22.2557 555.629 22.3906 556.046 22.6605C556.462 22.9257 556.777 23.2808 556.99 23.7259C557.203 24.1662 557.31 24.6515 557.31 25.1818V25.9489C557.31 26.4792 557.201 26.9669 556.983 27.4119C556.77 27.8523 556.453 28.2074 556.032 28.4773C555.615 28.7424 555.104 28.875 554.498 28.875C553.882 28.875 553.364 28.7424 552.942 28.4773C552.521 28.2074 552.201 27.8523 551.983 27.4119C551.766 26.9669 551.657 26.4792 551.657 25.9489ZM553.105 25.1818V25.9489C553.105 26.3892 553.21 26.7846 553.418 27.1349C553.626 27.4806 553.986 27.6534 554.498 27.6534C554.995 27.6534 555.345 27.4806 555.549 27.1349C555.757 26.7846 555.861 26.3892 555.861 25.9489V25.1818C555.861 24.7415 555.762 24.3485 555.563 24.0028C555.364 23.6525 555.009 23.4773 554.498 23.4773C554 23.4773 553.643 23.6525 553.425 24.0028C553.212 24.3485 553.105 24.7415 553.105 25.1818ZM552.196 37L562.196 22.4545H563.816L553.816 37H552.196Z" fill="black"/>
<defs>
<filter id="filter0_d_0_1" x="500" y="0" width="84" height="65" filterUnits="userSpaceOnUse" color-interpolation-filters="sRGB">
<feFlood flood-opacity="0" result="BackgroundImageFix"/>
<feColorMatrix in="SourceAlpha" type="matrix" values="0 0 0 0 0 0 0 0 0 0 0 0 0 0 0 0 0 0 127 0" result="hardAlpha"/>
<feOffset dy="4"/>
<feGaussianBlur stdDeviation="2"/>
<feComposite in2="hardAlpha" operator="out"/>
<feColorMatrix type="matrix" values="0 0 0 0 0 0 0 0 0 0 0 0 0 0 0 0 0 0 0.25 0"/>
<feBlend mode="normal" in2="BackgroundImageFix" result="effect1_dropShadow_0_1"/>
<feBlend mode="normal" in="SourceGraphic" in2="effect1_dropShadow_0_1" result="shape"/>
</filter>
</defs>
</svg>
